<svg width="32" height="32" viewBox="0 0 32 32" fill="none" xmlns="http://www.w3.org/2000/svg">
  <!-- Background gradient circle -->
  <circle cx="16" cy="16" r="16" fill="url(#gradient)" />
  
  <!-- Tree trunk -->
  <rect x="14" y="20" width="4" height="8" rx="2" fill="#8B4513" />
  
  <!-- Tree branches/links structure -->
  <g stroke="#FFFFFF" stroke-width="2" stroke-linecap="round">
    <!-- Main trunk -->
    <line x1="16" y1="20" x2="16" y2="12" />
    
    <!-- Branch levels -->
    <line x1="16" y1="14" x2="12" y2="10" />
    <line x1="16" y1="14" x2="20" y2="10" />
    <line x1="16" y1="16" x2="10" y2="12" />
    <line x1="16" y1="16" x2="22" y2="12" />
    <line x1="16" y1="18" x2="8" y2="14" />
    <line x1="16" y1="18" x2="24" y2="14" />
  </g>
  
  <!-- Link nodes (circles at branch ends) -->
  <circle cx="12" cy="10" r="2" fill="#60A5FA" />
  <circle cx="20" cy="10" r="2" fill="#A78BFA" />
  <circle cx="10" cy="12" r="2" fill="#34D399" />
  <circle cx="22" cy="12" r="2" fill="#F59E0B" />
  <circle cx="8" cy="14" r="2" fill="#EF4444" />
  <circle cx="24" cy="14" r="2" fill="#EC4899" />
  
  <!-- Gradient definition -->
  <defs>
    <linearGradient id="gradient" x1="0%" y1="0%" x2="100%" y2="100%">
      <stop offset="0%" style="stop-color:#1E3A8A;stop-opacity:1" />
      <stop offset="50%" style="stop-color:#7C3AED;stop-opacity:1" />
      <stop offset="100%" style="stop-color:#1E40AF;stop-opacity:1" />
    </linearGradient>
  </defs>
</svg>